<svg xmlns="http://www.w3.org/2000/svg" xmlns:xlink="http://www.w3.org/1999/xlink" version="1.1" x="0px" y="0px" viewBox="0 0 66 82.5" style="enable-background:new 0 0 66 66;" xml:space="preserve"><path d="M59.79,18.37c0.57-1.52,0.86-3.12,0.86-4.77c0-7.54-6.14-13.68-13.68-13.68c-4.9,0-9.42,2.65-11.85,6.85  c-2.01-1.34-4.33-2.04-6.79-2.04C21.76,4.73,16.37,9.9,16,16.38c-0.87-0.19-1.76-0.29-2.65-0.29C6.54,16.1,1,21.63,1,28.44  c0,5.95,4.24,11.05,9.99,12.12c0.18,0.05,0.36,0.08,0.46,0.09c0.36,0.06,0.72,0.1,1.1,0.13c0.26,0.01,0.52,0.02,0.8,0.02h15.67v8.76  c-2.63,1.8-4.24,4.83-4.24,8.04c0,3.45,1.77,6.57,4.74,8.35c0.31,0.19,0.7,0.19,1.01,0.01c0.31-0.18,0.51-0.51,0.51-0.87v-5.96  l3.47-2.14l3.46,2.14v5.96c0,0.36,0.19,0.69,0.51,0.87c0.15,0.09,0.32,0.13,0.49,0.13c0.18,0,0.36-0.05,0.51-0.14  c2.96-1.78,4.74-4.9,4.74-8.35c0-3.2-1.61-6.23-4.24-8.03v-8.77h12.67c6.81,0,12.35-5.54,12.35-12.35  C65,24.39,63.07,20.69,59.79,18.37z M42.21,57.58c0,2.09-0.82,4.02-2.25,5.45v-4.48c0-0.35-0.18-0.67-0.47-0.85l-4.46-2.76  c-0.16-0.1-0.34-0.15-0.53-0.15s-0.36,0.05-0.53,0.15l-4.47,2.76c-0.29,0.18-0.47,0.5-0.47,0.85v4.48  c-1.43-1.43-2.25-3.37-2.25-5.45c0-2.71,1.44-5.25,3.75-6.63c0.3-0.18,0.49-0.51,0.49-0.86V30.84c0-0.26-0.11-0.52-0.29-0.71  l-3.84-3.85V20l4.45-4.45h6.3L42.1,20v6.29l-3.84,3.84c-0.19,0.19-0.29,0.44-0.29,0.71V50.1c0,0.35,0.18,0.68,0.49,0.86  C40.81,52.37,42.21,54.84,42.21,57.58z M52.65,38.79H39.97v-7.54l3.84-3.84c0.19-0.19,0.29-0.44,0.29-0.71v-7.12  c0-0.27-0.11-0.52-0.29-0.71l-5.04-5.04c-0.19-0.19-0.44-0.29-0.71-0.29h-7.13c-0.27,0-0.52,0.11-0.71,0.29l-5.04,5.04  c-0.19,0.19-0.29,0.44-0.29,0.71v7.12c0,0.26,0.11,0.52,0.29,0.71l3.84,3.85v7.53H13.35c-0.24,0-0.48-0.01-0.68-0.02  c-0.29-0.02-0.58-0.05-0.96-0.11c-0.07-0.01-0.13-0.02-0.28-0.05C6.55,37.7,3,33.42,3,28.44c0-5.7,4.64-10.34,10.35-10.34  c1.12,0,2.24,0.18,3.32,0.54c0.31,0.1,0.66,0.05,0.92-0.15c0.26-0.2,0.41-0.52,0.39-0.85c-0.01-0.18-0.01-0.37-0.01-0.55  c0-5.71,4.64-10.35,10.35-10.35c2.41,0,4.66,0.8,6.51,2.31c0.24,0.19,0.56,0.27,0.86,0.2c0.3-0.07,0.55-0.27,0.68-0.55  c1.91-4.11,6.06-6.77,10.59-6.77c6.44,0,11.68,5.24,11.68,11.68c0,1.65-0.34,3.25-1.01,4.74c-0.21,0.46-0.04,1,0.39,1.26  C61.14,21.5,63,24.8,63,28.44C63,34.15,58.36,38.79,52.65,38.79z"/><path d="M39.84,24.94v-3.6c0-0.27-0.11-0.52-0.29-0.71L37,18.1c-0.19-0.19-0.44-0.29-0.71-0.29H32.7c-0.26,0-0.52,0.1-0.71,0.29  l-2.55,2.54c-0.19,0.19-0.29,0.44-0.29,0.71v3.6c0,0.27,0.11,0.52,0.29,0.71L32,28.2c0.19,0.19,0.44,0.29,0.71,0.29h3.59  c0.27,0,0.52-0.11,0.71-0.29l2.55-2.55C39.74,25.46,39.84,25.21,39.84,24.94z M37.84,24.53l-1.96,1.96h-2.76l-1.96-1.96v-2.77  l1.96-1.96h2.76l1.96,1.96V24.53z"/><path d="M17.66,55.96h-2.09V44.94c0-0.55-0.45-1-1-1H9.08c-0.55,0-1,0.45-1,1v11.02H6c-0.39,0-0.75,0.23-0.91,0.58  c-0.16,0.35-0.11,0.77,0.15,1.07l5.83,6.83c0.19,0.22,0.47,0.35,0.76,0.35s0.57-0.13,0.76-0.35l5.83-6.83  c0.25-0.3,0.31-0.71,0.15-1.07C18.41,56.19,18.05,55.96,17.66,55.96z M11.83,62.25l-3.66-4.29h0.91c0.55,0,1-0.45,1-1V45.94h3.49  v11.02c0,0.55,0.45,1,1,1h0.92L11.83,62.25z"/><path d="M54.93,44.29c-0.38-0.44-1.14-0.44-1.52,0l-5.83,6.83c-0.25,0.3-0.31,0.71-0.15,1.07c0.16,0.35,0.52,0.58,0.91,0.58h2.08  v11.02c0,0.55,0.45,1,1,1h5.49c0.55,0,1-0.45,1-1V52.77H60c0.39,0,0.75-0.23,0.91-0.58c0.16-0.35,0.11-0.77-0.15-1.07L54.93,44.29z   M56.91,50.77c-0.55,0-1,0.45-1,1v11.02h-3.49V51.77c0-0.55-0.45-1-1-1h-0.91l3.66-4.29l3.66,4.29H56.91z"/></svg>