<svg xmlns="http://www.w3.org/2000/svg" xmlns:xlink="http://www.w3.org/1999/xlink" version="1.1" x="0px" y="0px" viewBox="-17.5 -17.5 100 125" enable-background="new -17.5 -17.5 100 100" xml:space="preserve"><path d="M32.4,24.771c-9.529,0-19.657-2.433-19.657-6.941c0-4.504,10.128-6.935,19.657-6.935c9.528,0,19.654,2.431,19.654,6.935  C52.055,22.339,41.929,24.771,32.4,24.771z M32.4,12.396c-10.7,0-18.157,2.864-18.157,5.435c0,2.573,7.457,5.441,18.157,5.441  c10.698,0,18.154-2.868,18.154-5.441C50.555,15.26,43.099,12.396,32.4,12.396z"/><path d="M32.4,40.236c-9.529,0-19.657-2.433-19.657-6.94c0-0.414,0.336-0.75,0.75-0.75s0.75,0.336,0.75,0.75  c0,2.573,7.457,5.44,18.157,5.44c10.698,0,18.154-2.867,18.154-5.44c0-0.414,0.336-0.75,0.75-0.75s0.75,0.336,0.75,0.75  C52.055,37.804,41.929,40.236,32.4,40.236z"/><path d="M32.4,54.104c-9.529,0-19.657-2.432-19.657-6.938c0-0.414,0.336-0.75,0.75-0.75s0.75,0.336,0.75,0.75  c0,2.572,7.457,5.438,18.157,5.438c10.698,0,18.154-2.865,18.154-5.438c0-0.414,0.336-0.75,0.75-0.75s0.75,0.336,0.75,0.75  C52.055,51.673,41.929,54.104,32.4,54.104z"/><path d="M13.493,47.917c-0.414,0-0.75-0.336-0.75-0.75V17.831c0-0.414,0.336-0.75,0.75-0.75s0.75,0.336,0.75,0.75v29.336  C14.243,47.581,13.907,47.917,13.493,47.917z"/><path d="M51.305,47.917c-0.414,0-0.75-0.336-0.75-0.75V17.831c0-0.414,0.336-0.75,0.75-0.75s0.75,0.336,0.75,0.75v29.336  C52.055,47.581,51.719,47.917,51.305,47.917z"/><path d="M32.398-2.837c-4.042,0-7.331-3.289-7.331-7.331c0-4.043,3.289-7.332,7.331-7.332c4.042,0,7.331,3.289,7.331,7.332  C39.729-6.125,36.44-2.837,32.398-2.837z M32.398-16c-3.215,0-5.831,2.616-5.831,5.832c0,3.215,2.616,5.831,5.831,5.831  c3.215,0,5.831-2.616,5.831-5.831C38.229-13.384,35.613-16,32.398-16z"/><path d="M32.398,82.5c-4.042,0-7.331-3.289-7.331-7.331s3.289-7.331,7.331-7.331c4.042,0,7.331,3.289,7.331,7.331  S36.44,82.5,32.398,82.5z M32.398,69.338c-3.215,0-5.831,2.616-5.831,5.831S29.183,81,32.398,81c3.215,0,5.831-2.616,5.831-5.831  S35.613,69.338,32.398,69.338z"/><path d="M-5.565,19.293c-4.042,0-7.331-3.289-7.331-7.331s3.289-7.331,7.331-7.331s7.331,3.289,7.331,7.331  S-1.523,19.293-5.565,19.293z M-5.565,6.131c-3.215,0-5.831,2.616-5.831,5.831s2.616,5.831,5.831,5.831s5.831-2.616,5.831-5.831  S-2.35,6.131-5.565,6.131z"/><path d="M-5.565,60.368c-4.042,0-7.331-3.289-7.331-7.331s3.289-7.331,7.331-7.331s7.331,3.289,7.331,7.331  S-1.523,60.368-5.565,60.368z M-5.565,47.206c-3.215,0-5.831,2.616-5.831,5.831s2.616,5.831,5.831,5.831s5.831-2.616,5.831-5.831  S-2.35,47.206-5.565,47.206z"/><path d="M21.727-5.235c-0.254,0-0.502-0.129-0.643-0.362c-0.214-0.355-0.1-0.816,0.254-1.03l4.293-2.59  c0.354-0.214,0.815-0.101,1.03,0.254c0.214,0.355,0.1,0.816-0.254,1.03l-4.293,2.59C21.993-5.27,21.859-5.235,21.727-5.235z"/><path d="M10.862,1.321c-0.254,0-0.502-0.129-0.643-0.362c-0.214-0.355-0.1-0.816,0.254-1.03l4.821-2.91  c0.354-0.214,0.815-0.101,1.03,0.254c0.214,0.355,0.1,0.816-0.254,1.03l-4.821,2.91C11.128,1.286,10.995,1.321,10.862,1.321z"/><path d="M-0.696,8.296c-0.254,0-0.502-0.129-0.643-0.362c-0.214-0.355-0.1-0.816,0.254-1.03l4.293-2.59  c0.354-0.214,0.815-0.101,1.03,0.254c0.214,0.355,0.1,0.816-0.254,1.03l-4.293,2.59C-0.43,8.261-0.563,8.296-0.696,8.296z"/><path d="M-5.565,24.308c-0.414,0-0.75-0.336-0.75-0.75v-5.014c0-0.414,0.336-0.75,0.75-0.75s0.75,0.336,0.75,0.75v5.014  C-4.815,23.972-5.151,24.308-5.565,24.308z"/><path d="M-5.565,35.024c-0.414,0-0.75-0.336-0.75-0.75v-4.755c0-0.414,0.336-0.75,0.75-0.75s0.75,0.336,0.75,0.75v4.755  C-4.815,34.688-5.151,35.024-5.565,35.024z"/><path d="M-5.565,47.206c-0.414,0-0.75-0.336-0.75-0.75v-5.014c0-0.414,0.336-0.75,0.75-0.75s0.75,0.336,0.75,0.75v5.014  C-4.815,46.87-5.151,47.206-5.565,47.206z"/><path d="M3.665,60.685c-0.125,0-0.253-0.031-0.37-0.098l-4.361-2.475c-0.36-0.204-0.487-0.662-0.282-1.022  c0.205-0.359,0.665-0.485,1.022-0.282l4.361,2.475c0.36,0.204,0.487,0.662,0.282,1.022C4.179,60.548,3.925,60.685,3.665,60.685z"/><path d="M14.447,66.8c-0.125,0-0.252-0.031-0.37-0.098l-4.785-2.714c-0.36-0.204-0.487-0.662-0.282-1.022  c0.205-0.359,0.662-0.485,1.022-0.282l4.785,2.714c0.36,0.204,0.487,0.662,0.282,1.022C14.962,66.663,14.708,66.8,14.447,66.8z"/><path d="M26.019,73.363c-0.125,0-0.253-0.031-0.37-0.098l-4.361-2.475c-0.36-0.204-0.487-0.662-0.282-1.022  c0.206-0.359,0.664-0.486,1.022-0.282l4.361,2.475c0.36,0.204,0.487,0.662,0.282,1.022C26.534,73.227,26.28,73.363,26.019,73.363z"/><path d="M70.565,19.293c-4.042,0-7.331-3.289-7.331-7.331s3.289-7.331,7.331-7.331s7.331,3.289,7.331,7.331  S74.607,19.293,70.565,19.293z M70.565,6.131c-3.215,0-5.831,2.616-5.831,5.831s2.616,5.831,5.831,5.831s5.831-2.616,5.831-5.831  S73.78,6.131,70.565,6.131z"/><path d="M70.565,60.37c-4.042,0-7.331-3.289-7.331-7.331s3.289-7.331,7.331-7.331s7.331,3.289,7.331,7.331  S74.607,60.37,70.565,60.37z M70.565,47.208c-3.215,0-5.831,2.616-5.831,5.831s2.616,5.831,5.831,5.831s5.831-2.616,5.831-5.831  S73.78,47.208,70.565,47.208z"/><path d="M43.271-5.235c-0.132,0-0.266-0.035-0.387-0.108l-4.293-2.59c-0.354-0.214-0.469-0.675-0.255-1.03  c0.216-0.355,0.677-0.468,1.03-0.254l4.293,2.59c0.354,0.214,0.469,0.675,0.255,1.03C43.773-5.364,43.525-5.235,43.271-5.235z"/><path d="M54.137,1.321c-0.132,0-0.266-0.035-0.387-0.108l-4.821-2.91c-0.354-0.214-0.469-0.675-0.255-1.03  c0.215-0.354,0.676-0.469,1.03-0.254l4.821,2.91c0.354,0.214,0.469,0.675,0.255,1.03C54.639,1.192,54.391,1.321,54.137,1.321z"/><path d="M65.695,8.296c-0.132,0-0.266-0.035-0.387-0.108l-4.294-2.59c-0.354-0.214-0.469-0.675-0.255-1.029  c0.215-0.356,0.677-0.469,1.03-0.255l4.294,2.59c0.354,0.214,0.469,0.675,0.255,1.029C66.197,8.167,65.949,8.296,65.695,8.296z"/><path d="M70.565,24.308c-0.414,0-0.75-0.336-0.75-0.75v-5.014c0-0.414,0.336-0.75,0.75-0.75s0.75,0.336,0.75,0.75v5.014  C71.315,23.972,70.979,24.308,70.565,24.308z"/><path d="M70.565,35.024c-0.414,0-0.75-0.336-0.75-0.75v-4.755c0-0.414,0.336-0.75,0.75-0.75s0.75,0.336,0.75,0.75v4.755  C71.315,34.688,70.979,35.024,70.565,35.024z"/><path d="M70.565,47.208c-0.414,0-0.75-0.336-0.75-0.75v-5.015c0-0.414,0.336-0.75,0.75-0.75s0.75,0.336,0.75,0.75v5.015  C71.315,46.872,70.979,47.208,70.565,47.208z"/><path d="M61.335,60.686c-0.262,0-0.516-0.137-0.653-0.38c-0.204-0.36-0.078-0.818,0.282-1.022l4.362-2.476  c0.361-0.206,0.819-0.078,1.022,0.282c0.204,0.36,0.078,0.818-0.282,1.022l-4.362,2.476C61.587,60.654,61.46,60.686,61.335,60.686z"/><path d="M50.553,66.8c-0.262,0-0.516-0.137-0.653-0.38c-0.204-0.36-0.078-0.818,0.282-1.022l4.785-2.714  c0.362-0.206,0.818-0.078,1.022,0.282s0.078,0.818-0.282,1.022l-4.785,2.714C50.805,66.769,50.678,66.8,50.553,66.8z"/><path d="M38.98,73.363c-0.262,0-0.516-0.137-0.653-0.38c-0.204-0.36-0.078-0.818,0.282-1.022l4.361-2.473  c0.361-0.205,0.818-0.077,1.022,0.282c0.204,0.36,0.078,0.818-0.282,1.022l-4.361,2.473C39.232,73.332,39.105,73.363,38.98,73.363z"/><path d="M32.5,63.689c-17.198,0-31.189-13.991-31.189-31.189c0-17.198,13.992-31.189,31.189-31.189  c17.198,0,31.189,13.991,31.189,31.189C63.689,49.698,49.698,63.689,32.5,63.689z M32.5,2.811C16.129,2.811,2.811,16.129,2.811,32.5  c0,16.371,13.319,29.689,29.689,29.689c16.371,0,29.689-13.318,29.689-29.689C62.189,16.129,48.871,2.811,32.5,2.811z"/></svg>